<svg id="Capa_1" enable-background="new 0 0 512 512" height="512" viewBox="0 0 512 512" width="512" xmlns="http://www.w3.org/2000/svg"><g><g><path d="m490.36 177.792h-18.289c-32.854-90.861-119-151.53-216.071-151.53-52.573 0-102.048 17.288-143.075 49.996-3.239 2.582-3.771 7.301-1.189 10.54 2.581 3.238 7.3 3.771 10.54 1.189 38.342-30.568 84.583-46.725 133.724-46.725 88.905 0 168 54.444 200.044 136.53h-18.804c-14.754-34.102-38.694-63.228-69.497-84.453-32.989-22.732-71.63-34.748-111.743-34.748s-78.753 12.016-111.743 34.748c-30.803 21.225-54.743 50.35-69.497 84.453h-18.807c9.607-24.614 23.569-47.023 41.608-66.725 2.797-3.055 2.588-7.799-.467-10.596s-7.799-2.588-10.596.467c-20.624 22.525-36.269 48.36-46.57 76.855h-18.288c-11.932-.001-21.64 9.707-21.64 21.639v113.14c0 11.932 9.708 21.64 21.64 21.64h18.288c32.852 90.859 118.997 151.526 216.072 151.526s183.22-60.667 216.072-151.526h18.289c11.933 0 21.64-9.708 21.64-21.64v-113.14c-.001-11.932-9.708-21.64-21.641-21.64zm-337.592-72.101c30.476-21 66.172-32.1 103.232-32.1s72.757 11.1 103.232 32.1c26.662 18.372 47.743 43.152 61.516 72.101h-329.496c13.773-28.949 34.854-53.729 61.516-72.101zm344.232 206.881c0 3.661-2.979 6.64-6.64 6.64h-316.68c-4.142 0-7.5 3.358-7.5 7.5s3.358 7.5 7.5 7.5h247.066c-9.493 19.861-22.694 38.171-38.625 53.435-2.991 2.865-3.093 7.613-.228 10.604 1.474 1.538 3.443 2.312 5.417 2.312 1.865 0 3.734-.692 5.188-2.084 18.946-18.152 34.342-40.286 44.743-64.266h18.804c-32.042 82.083-111.137 136.525-200.045 136.525s-168.004-54.442-200.044-136.526h18.807c14.754 34.101 38.693 63.225 69.495 84.451 32.99 22.733 71.629 34.75 111.742 34.75 38.553 0 75.934-11.173 108.1-32.312 3.461-2.275 4.424-6.925 2.148-10.386-2.274-3.462-6.925-4.424-10.387-2.149-29.713 19.527-64.244 29.848-99.861 29.848-37.059 0-72.755-11.1-103.23-32.101-26.662-18.372-47.742-43.152-61.514-72.099h47.425c4.142 0 7.5-3.358 7.5-7.5s-3.358-7.5-7.5-7.5h-117.041c-3.662 0-6.64-2.979-6.64-6.64v-113.14c0-3.661 2.979-6.64 6.64-6.64h468.72c3.661 0 6.64 2.979 6.64 6.64z"/><path d="m135.012 216.177c-4.142 0-7.5 3.358-7.5 7.5v40.652l-31.117-44.923c-1.868-2.696-5.27-3.867-8.403-2.888-3.131.978-5.263 3.878-5.263 7.158v64.65c0 4.142 3.358 7.5 7.5 7.5s7.5-3.358 7.5-7.5v-40.652l31.117 44.923c1.428 2.061 3.752 3.23 6.167 3.23.745 0 1.498-.111 2.236-.342 3.131-.978 5.263-3.878 5.263-7.158v-64.65c0-4.142-3.358-7.5-7.5-7.5z"/><path d="m306.679 231.177c4.143 0 7.5-3.358 7.5-7.5s-3.357-7.5-7.5-7.5h-26.203c-4.143 0-7.5 3.358-7.5 7.5v64.65c0 4.142 3.357 7.5 7.5 7.5s7.5-3.358 7.5-7.5v-25.437h16.622c4.143 0 7.5-3.358 7.5-7.5s-3.357-7.5-7.5-7.5h-16.622v-16.713z"/><path d="m364.225 231.177c4.143 0 7.5-3.358 7.5-7.5s-3.357-7.5-7.5-7.5h-27.241c-4.143 0-7.5 3.358-7.5 7.5v64.65c0 4.142 3.357 7.5 7.5 7.5h27.241c4.143 0 7.5-3.358 7.5-7.5s-3.357-7.5-7.5-7.5h-19.741v-17.325h17.732c4.143 0 7.5-3.358 7.5-7.5s-3.357-7.5-7.5-7.5h-17.732v-17.325z"/><path d="m421.771 231.177c4.143 0 7.5-3.358 7.5-7.5s-3.357-7.5-7.5-7.5h-27.241c-4.143 0-7.5 3.358-7.5 7.5v64.65c0 4.142 3.357 7.5 7.5 7.5h27.241c4.143 0 7.5-3.358 7.5-7.5s-3.357-7.5-7.5-7.5h-19.741v-17.325h17.732c4.143 0 7.5-3.358 7.5-7.5s-3.357-7.5-7.5-7.5h-17.732v-17.325z"/><path d="m197.643 216.177c-21.959 0-39.825 17.865-39.825 39.825s17.866 39.825 39.825 39.825 39.825-17.865 39.825-39.825-17.866-39.825-39.825-39.825zm0 64.65c-13.688 0-24.825-11.136-24.825-24.825s11.137-24.825 24.825-24.825 24.825 11.136 24.825 24.825-11.137 24.825-24.825 24.825z"/></g></g></svg>